# Blender v2.93.5 OBJ File: ''
# www.blender.org
mtllib untitled.mtl
o floor_Cube.01_Cube.001
v -1.000000 -0.000000 4.000000
v -1.000000 -1.000000 -1.000000
v -1.000000 -1.000000 4.000000
v -1.000000 0.000000 -1.000000
v 5.000000 -1.000000 -1.000000
v 5.000000 0.000000 -1.000000
v 5.000000 -1.000000 4.000000
v 5.000000 -0.000000 4.000000
vt 0.625000 0.000000
vt 0.375000 0.250000
vt 0.375000 0.000000
vt 0.625000 0.250000
vt 0.375000 0.500000
vt 0.625000 0.500000
vt 0.375000 0.750000
vt 0.625000 0.750000
vt 0.375000 1.000000
vt 0.125000 0.750000
vt 0.125000 0.500000
vt 0.875000 0.500000
vt 0.625000 1.000000
vt 0.875000 0.750000
vn -1.0000 0.0000 0.0000
vn 0.0000 0.0000 -1.0000
vn 1.0000 0.0000 0.0000
vn 0.0000 0.0000 1.0000
vn 0.0000 -1.0000 -0.0000
vn 0.0000 1.0000 0.0000
usemtl None
s 1
f 1/1/1 2/2/1 3/3/1
f 4/4/2 5/5/2 2/2/2
f 6/6/3 7/7/3 5/5/3
f 8/8/4 3/9/4 7/7/4
f 5/5/5 3/10/5 2/11/5
f 4/12/6 8/8/6 6/6/6
f 1/1/1 4/4/1 2/2/1
f 4/4/2 6/6/2 5/5/2
f 6/6/3 8/8/3 7/7/3
f 8/8/4 1/13/4 3/9/4
f 5/5/5 7/7/5 3/10/5
f 4/12/6 1/14/6 8/8/6
o wall_Cube_Cube.002
v -1.000000 1.000000 -1.000000
v -1.000000 -1.000000 -3.000000
v -1.000000 -1.000000 -1.000000
v -1.000000 1.000000 -3.000000
v 5.000000 -1.000000 -3.000000
v 5.000000 1.000000 -3.000000
v 5.000000 -1.000000 -1.000000
v 5.000000 1.000000 -1.000000
vt 0.625000 0.000000
vt 0.375000 0.250000
vt 0.375000 0.000000
vt 0.625000 0.250000
vt 0.375000 0.500000
vt 0.625000 0.500000
vt 0.375000 0.750000
vt 0.625000 0.750000
vt 0.375000 1.000000
vt 0.125000 0.750000
vt 0.125000 0.500000
vt 0.875000 0.500000
vt 0.625000 1.000000
vt 0.875000 0.750000
vn -1.0000 0.0000 0.0000
vn 0.0000 0.0000 -1.0000
vn 1.0000 0.0000 0.0000
vn 0.0000 -0.0000 1.0000
vn 0.0000 -1.0000 -0.0000
vn 0.0000 1.0000 0.0000
usemtl None
s 1
f 9/15/7 10/16/7 11/17/7
f 12/18/8 13/19/8 10/16/8
f 14/20/9 15/21/9 13/19/9
f 16/22/10 11/23/10 15/21/10
f 13/19/11 11/24/11 10/25/11
f 12/26/12 16/22/12 14/20/12
f 9/15/7 12/18/7 10/16/7
f 12/18/8 14/20/8 13/19/8
f 14/20/9 16/22/9 15/21/9
f 16/22/10 9/27/10 11/23/10
f 13/19/11 15/21/11 11/24/11
f 12/26/12 9/28/12 16/22/12
